<svg id="SvgjsSvg1363" width="550" height="550" xmlns="http://www.w3.org/2000/svg" version="1.1" xmlns:xlink="http://www.w3.org/1999/xlink" xmlns:svgjs="http://svgjs.com/svgjs"><defs id="SvgjsDefs1364"></defs><g id="SvgjsG1365"><svg xmlns="http://www.w3.org/2000/svg" data-name="2" viewBox="0 0 3490.701 2300" width="550" height="550"><path fill="#ffe3c2" d="M763.815 1973.206c-184.338-36.988-359.682-99.637-498.714-237.303-112.488-111.383-185.44-260.648-210.377-416.975-32.047-200.89 18.54-412.097 131.755-580.373 98.954-147.081 246.961-250.685 404.585-325.74 195.12-92.91 383.597-194.803 587.261-269.14C1549.498 8.198 1947.843-27.609 2339.15 20.045c226.378 27.568 453.386 95.243 632.8 241.114a909.504 909.504 0 0 1 139.233 141.194c292.342 369.343 297.896 958.9-15.326 1317.913-86.464 99.105-196.755 176.762-316.49 230.46-266.377 119.463-569.606 125.91-856.348 113.503-324.877-14.056-653.845-17.355-976.424-61.242-61.252-8.334-122.497-17.685-182.78-29.781Z" class="colorffe3c2 svgShape"></path><circle cx="2323.748" cy="1299.525" r="543.266" fill="#e6560f" class="colore6560f svgShape"></circle><path fill="#ffab57" d="M2795.628 1299.53c0 260.614-211.264 471.878-471.878 471.878a469.747 469.747 0 0 1-272.157-86.344 469.868 469.868 0 0 0 220.44 54.542c260.615 0 471.878-211.275 471.878-471.89 0-159.225-78.854-300.03-199.652-385.5 149.51 79.177 251.369 236.347 251.369 417.313Z" class="colorffab57 svgShape"></path><path fill="#ffffff" d="M2743.911 1267.717c0 260.614-211.263 471.89-471.878 471.89a469.868 469.868 0 0 1-220.44-54.543c-120.843-85.458-199.733-226.286-199.733-385.535 0-260.614 211.275-471.889 471.89-471.889a469.86 469.86 0 0 1 220.509 54.576c120.798 85.47 199.652 226.275 199.652 385.5Z" class="colorfff svgShape"></path><path fill="#ffab57" d="M2304.227 885.764c-.81 12.263-.506 24.434-.3 36.718.196 11.723-1.376 27.61 8.85 35.505 2.83 2.184 7.061.855 9.439-1.218 4.801-4.186 5.781-11.44 5.725-17.416-.057-5.963-.121-11.907-.418-17.863-.598-11.977-1.12-23.834-2.698-35.726-.731-5.513-4.21-10.3-10.3-10.3-5.879 0-9.93 4.727-10.298 10.3ZM2324.49 1637.445c-1.872 12.683-1.949 25.588-1.782 38.395.08 6.218.002 12.708 1.01 18.855 1.082 6.605.969 14.748 7.669 18.217 3.752 1.942 7.213 1.149 10.374-1.339 5.34-4.202 3.937-11.87 4.081-17.911.142-5.92-.432-11.895-.677-17.822-.49-11.888.02-23.804-.572-35.675-.252-5.06-3.696-9.435-8.874-10.051-4.532-.54-10.477 2.235-11.23 7.33ZM2640.69 1300.092q.698.51 1.397 1.018l-3.44-4.474c3.234 8.269 11.301 9.115 19.177 9.76 6.98.57 13.925.746 20.925.894 6.976.149 13.948.294 20.926.322 7.698.03 16.239.06 22.679-4.852 5.974-4.558 5.974-11.672 0-16.23-6.446-4.917-14.972-4.882-22.68-4.851-6.977.028-13.95.173-20.925.321-7 .149-13.946.324-20.925.895-7.876.644-15.942 1.49-19.178 9.76l3.441-4.475-1.397 1.018c-4.028 2.935-4.028 7.96 0 10.894ZM2328.847 1293.909c26.29-30.902 53.033-61.42 79.478-92.194q39.718-46.22 80.338-91.657 11.617-12.98 23.211-25.978c7.466-8.387 16.456-16.439 20.646-27.048 1.957-4.957-4.36-8.434-8.321-6.397-9.014 4.635-15.43 13.547-22.086 20.95q-10.033 11.158-19.917 22.443-20.063 22.973-39.87 46.169c-26.413 30.932-52.765 62.005-77.78 94.083q-21.228 27.222-42.27 54.558c-2.868 3.748 3.5 8.68 6.571 5.07Z" class="colorffab57 svgShape"></path><path fill="#ffab57" d="M2318.759 1301.59c25.278 28.975 53.048 55.77 81.186 81.95 28.224 26.258 57.6 50.993 87.843 74.877 16.785 13.257 33.64 27.25 52.12 38.098 3.695 2.168 7.723-2.926 4.602-5.965-13.684-13.328-29.12-24.989-43.78-37.22-14.516-12.112-28.57-24.722-42.91-37.032-28.952-24.854-57.189-50.538-85.006-76.651-15.84-14.87-31.382-30.028-47.319-44.792-4.534-4.2-10.75 2.134-6.736 6.736Z" class="colorffab57 svgShape"></path><path fill="#ffffff" d="M183.185 159.957h2051.579v1260.982H183.185z" class="colorfff svgShape"></path><path fill="#ffab57" d="M2228.859 165.863v1249.17H189.09V165.864h2039.768m11.81-11.81H177.28v1272.791h2063.39V154.052Z" class="colorffab57 svgShape"></path><path fill="#ffab57" d="M177.28 154.052h2063.389v90.097H177.28z" class="colorffab57 svgShape"></path><circle cx="248.944" cy="198.78" r="18.028" fill="#ffffff" class="colorfff svgShape"></circle><circle cx="299.422" cy="198.78" r="18.028" fill="#ffffff" class="colorfff svgShape"></circle><circle cx="349.9" cy="198.78" r="18.028" fill="#ffffff" class="colorfff svgShape"></circle><path fill="#13a497" d="M765.957 436.563h951.02a12.588 12.588 0 0 1 12.588 12.588v1.144a12.588 12.588 0 0 1-12.589 12.589H765.957a12.588 12.588 0 0 1-12.588-12.589v-1.144a12.588 12.588 0 0 1 12.588-12.588ZM765.957 499.783h101.586a12.588 12.588 0 0 1 12.589 12.589v1.144a12.588 12.588 0 0 1-12.589 12.588H765.957a12.588 12.588 0 0 1-12.588-12.588v-1.144a12.588 12.588 0 0 1 12.588-12.589ZM765.957 551.27h101.586a12.588 12.588 0 0 1 12.589 12.587v1.145a12.588 12.588 0 0 1-12.589 12.588H765.957a12.588 12.588 0 0 1-12.588-12.588v-1.145a12.588 12.588 0 0 1 12.588-12.588Z" class="color13a497 svgShape"></path><rect width="126.763" height="26.321" x="753.369" y="602.755" fill="#13a497" rx="12.588" class="color13a497 svgShape"></rect><rect width="126.763" height="26.321" x="753.369" y="654.241" fill="#13a497" rx="12.588" class="color13a497 svgShape"></rect><path fill="#13a497" d="M765.957 705.727h101.586a12.588 12.588 0 0 1 12.589 12.588v1.145a12.588 12.588 0 0 1-12.589 12.588H765.957a12.588 12.588 0 0 1-12.588-12.588v-1.145a12.588 12.588 0 0 1 12.588-12.588ZM765.957 757.213h101.586a12.588 12.588 0 0 1 12.589 12.588v1.145a12.588 12.588 0 0 1-12.589 12.588H765.957a12.588 12.588 0 0 1-12.588-12.588V769.8a12.588 12.588 0 0 1 12.588-12.588ZM765.957 808.699h101.586a12.588 12.588 0 0 1 12.589 12.588v1.144a12.588 12.588 0 0 1-12.589 12.589H765.957a12.588 12.588 0 0 1-12.588-12.589v-1.144a12.588 12.588 0 0 1 12.588-12.588Z" class="color13a497 svgShape"></path><rect width="126.763" height="26.321" x="753.369" y="860.185" fill="#13a497" rx="12.588" class="color13a497 svgShape"></rect><path fill="#e6560f" d="M925.43 499.783h488.168a9.066 9.066 0 0 1 9.066 9.066v8.19a9.066 9.066 0 0 1-9.066 9.065H925.43a9.066 9.066 0 0 1-9.066-9.065v-8.19a9.066 9.066 0 0 1 9.065-9.066Z" class="colore6560f svgShape"></path><rect width="543.583" height="26.321" x="916.365" y="551.269" fill="#e6560f" rx="9.394" class="colore6560f svgShape"></rect><rect width="703.29" height="26.321" x="916.365" y="602.755" fill="#e6560f" rx="10.685" class="colore6560f svgShape"></rect><rect width="703.29" height="26.321" x="1422.664" y="654.241" fill="#ffab57" rx="10.685" class="colorffab57 svgShape"></rect><rect width="478.313" height="26.321" x="916.365" y="654.241" fill="#e6560f" rx="8.812" class="colore6560f svgShape"></rect><rect width="821.441" height="26.321" x="916.365" y="705.727" fill="#e6560f" rx="11.547" class="colore6560f svgShape"></rect><path fill="#e6560f" d="M925.666 757.213h514.328a9.301 9.301 0 0 1 9.301 9.3v7.72a9.301 9.301 0 0 1-9.3 9.3h-514.33a9.301 9.301 0 0 1-9.3-9.3v-7.72a9.301 9.301 0 0 1 9.3-9.3ZM927.25 808.699h708.115a10.885 10.885 0 0 1 10.885 10.885v4.55a10.885 10.885 0 0 1-10.885 10.886H927.25a10.885 10.885 0 0 1-10.885-10.885v-4.551a10.885 10.885 0 0 1 10.885-10.885ZM924.94 860.185h435.815a8.575 8.575 0 0 1 8.575 8.575v9.17a8.575 8.575 0 0 1-8.575 8.576H924.94a8.575 8.575 0 0 1-8.575-8.575v-9.172a8.575 8.575 0 0 1 8.575-8.574ZM1689.176 808.699h435.816a8.575 8.575 0 0 1 8.575 8.575v9.17a8.575 8.575 0 0 1-8.575 8.576h-435.816a8.575 8.575 0 0 1-8.575-8.575v-9.171a8.575 8.575 0 0 1 8.575-8.575Z" class="colore6560f svgShape"></path><rect width="205.492" height="26.321" x="1454.526" y="499.783" fill="#ffe3c2" rx="5.776" class="colorffe3c2 svgShape"></rect><rect width="205.492" height="26.321" x="1254.456" y="922.058" fill="#ffe3c2" rx="5.776" class="colorffe3c2 svgShape"></rect><rect width="205.492" height="26.321" x="1720.859" y="922.058" fill="#ffe3c2" rx="5.776" class="colorffe3c2 svgShape"></rect><path fill="#ffab57" d="M833.712 325.643 784.12 343.81l49.593 18.022v18.616l-70.888-26.954v-19.362l70.888-26.954ZM887.027 270.54h20.7l-49.145 140.292h-20.7ZM981.3 334.132v19.362l-70.888 26.954v-18.616l49.594-18.022-49.594-18.167v-18.465ZM999.619 392.955a14.127 14.127 0 0 1-4.17-10.422 13.591 13.591 0 0 1 4.17-10.35 15.352 15.352 0 0 1 20.549 0 13.591 13.591 0 0 1 4.169 10.35 14.127 14.127 0 0 1-4.17 10.422 14.73 14.73 0 0 1-20.548 0ZM1038.638 392.955a14.127 14.127 0 0 1-4.169-10.422 13.591 13.591 0 0 1 4.17-10.35 15.352 15.352 0 0 1 20.548 0 13.591 13.591 0 0 1 4.17 10.35 14.127 14.127 0 0 1-4.17 10.422 14.73 14.73 0 0 1-20.549 0ZM1077.658 392.955a14.127 14.127 0 0 1-4.17-10.422 13.591 13.591 0 0 1 4.17-10.35 15.352 15.352 0 0 1 20.549 0 13.591 13.591 0 0 1 4.169 10.35 14.127 14.127 0 0 1-4.17 10.422 14.73 14.73 0 0 1-20.548 0ZM248.944 304.283h458.062v291.042H248.944zM248.944 630.664h458.062v728.484H248.944z" class="colorffab57 svgShape"></path><rect width="86.534" height="21.549" x="302.594" y="354.737" fill="#ffffff" rx="10.306" class="colorfff svgShape"></rect><rect width="239.91" height="21.549" x="411.695" y="354.737" fill="#ffffff" opacity=".57" rx="10.306" class="colorfff svgShape"></rect><rect width="258.438" height="21.549" x="393.167" y="440.35" fill="#ffffff" opacity=".36" rx="10.306" class="colorfff svgShape"></rect><path fill="#ffffff" d="M441.53 397.544h200.207a9.868 9.868 0 019.868 9.868v1.813a9.868 9.868 0 01-9.868 9.868H441.53a9.868 9.868 0 01-9.867-9.868v-1.814a9.868 9.868 0 019.867-9.867zM403.473 525.964H641.3a10.306 10.306 0 0110.306 10.306v.936a10.306 10.306 0 01-10.306 10.307H403.473a10.306 10.306 0 01-10.306-10.306v-.937a10.306 10.306 0 0110.306-10.306z" opacity=".57" class="colorfff svgShape"></path><rect width="258.438" height="21.549" x="393.167" y="682.423" fill="#ffffff" opacity=".57" rx="10.306" class="colorfff svgShape"></rect><path fill="#ffffff" d="M403.473 768.036H641.3a10.306 10.306 0 0 1 10.306 10.306v.937a10.306 10.306 0 0 1-10.306 10.306H403.473a10.306 10.306 0 0 1-10.306-10.306v-.937a10.306 10.306 0 0 1 10.306-10.306Z" opacity=".57" class="colorfff svgShape"></path><rect width="207.625" height="21.549" x="443.979" y="725.23" fill="#ffffff" opacity=".37" rx="9.238" class="colorfff svgShape"></rect><path fill="#ffffff" d="M453.217 813.793h189.15a9.238 9.238 0 0 1 9.238 9.237v3.074a9.238 9.238 0 0 1-9.238 9.238h-189.15a9.238 9.238 0 0 1-9.238-9.238v-3.074a9.238 9.238 0 0 1 9.238-9.237Z" opacity=".37" class="colorfff svgShape"></path><rect width="207.625" height="21.549" x="443.979" y="853.65" fill="#ffffff" opacity=".61" rx="9.238" class="colorfff svgShape"></rect><rect width="237.13" height="21.549" x="414.474" y="939.263" fill="#ffffff" opacity=".61" rx="9.872" class="colorfff svgShape"></rect><path fill="#ffffff" d="M453.217 982.07h189.15a9.238 9.238 0 0 1 9.238 9.237v3.074a9.238 9.238 0 0 1-9.238 9.237h-189.15a9.238 9.238 0 0 1-9.238-9.237v-3.074a9.238 9.238 0 0 1 9.238-9.238Z" opacity=".61" class="colorfff svgShape"></path><rect width="155.375" height="21.549" x="496.229" y="1024.876" fill="#ffffff" opacity=".61" rx="7.991" class="colorfff svgShape"></rect><rect width="251.57" height="21.549" x="400.035" y="1067.683" fill="#ffffff" opacity=".86" rx="10.168" class="colorfff svgShape"></rect><rect width="207.625" height="21.549" x="443.979" y="1110.489" fill="#ffffff" opacity=".61" rx="9.238" class="colorfff svgShape"></rect><rect width="247.621" height="21.549" x="403.984" y="1153.296" fill="#ffffff" opacity=".18" rx="10.088" class="colorfff svgShape"></rect><rect width="207.625" height="21.549" x="443.979" y="1196.102" fill="#ffffff" opacity=".61" rx="9.238" class="colorfff svgShape"></rect><path fill="#ffffff" d="M418.988 1238.909h222.631a9.985 9.985 0 0 1 9.986 9.985v1.579a9.985 9.985 0 0 1-9.986 9.985H418.988a9.985 9.985 0 0 1-9.986-9.985v-1.579a9.985 9.985 0 0 1 9.986-9.985Z" opacity=".61" class="colorfff svgShape"></path><rect width="207.625" height="21.549" x="443.979" y="1281.716" fill="#ffffff" opacity=".96" rx="9.238" class="colorfff svgShape"></rect><rect width="237.13" height="21.549" x="414.474" y="893.506" fill="#ffffff" opacity=".37" rx="9.872" class="colorfff svgShape"></rect><path fill="#ffffff" d="M441.53 483.157h200.207a9.868 9.868 0 0 1 9.868 9.868v1.813a9.868 9.868 0 0 1-9.868 9.868H441.53a9.868 9.868 0 0 1-9.867-9.868v-1.813a9.868 9.868 0 0 1 9.867-9.868Z" opacity=".57" class="colorfff svgShape"></path><rect width="86.534" height="21.549" x="314.007" y="397.544" fill="#ffffff" rx="10.306" class="colorfff svgShape"></rect><rect width="86.534" height="21.549" x="281.394" y="440.35" fill="#ffffff" rx="10.306" class="colorfff svgShape"></rect><path fill="#ffffff" d="M316.94 483.157h65.921a10.306 10.306 0 0 1 10.306 10.306v.937a10.306 10.306 0 0 1-10.306 10.306h-65.922a10.306 10.306 0 0 1-10.306-10.306v-.937a10.306 10.306 0 0 1 10.306-10.306Z" class="colorfff svgShape"></path><rect width="86.534" height="21.549" x="281.394" y="525.964" fill="#ffffff" rx="10.306" class="colorfff svgShape"></rect><rect width="86.534" height="21.549" x="281.394" y="682.423" fill="#ffffff" rx="10.306" class="colorfff svgShape"></rect><rect width="86.534" height="21.549" x="306.633" y="725.23" fill="#ffffff" rx="10.306" class="colorfff svgShape"></rect><path fill="#ffffff" d="M291.7 768.036h65.922a10.306 10.306 0 0 1 10.306 10.306v.937a10.306 10.306 0 0 1-10.306 10.306H291.7a10.306 10.306 0 0 1-10.306-10.306v-.937a10.306 10.306 0 0 1 10.306-10.306Z" class="colorfff svgShape"></path><rect width="86.534" height="21.549" x="281.394" y="810.843" fill="#ffffff" rx="10.306" class="colorfff svgShape"></rect><rect width="86.534" height="21.549" x="281.394" y="853.65" fill="#ffffff" rx="10.306" class="colorfff svgShape"></rect><rect width="86.534" height="21.549" x="306.633" y="896.456" fill="#ffffff" rx="10.306" class="colorfff svgShape"></rect><path fill="#ffffff" d="M291.7 939.263h65.922a10.306 10.306 0 0 1 10.306 10.306v.937a10.306 10.306 0 0 1-10.306 10.306H291.7a10.306 10.306 0 0 1-10.306-10.306v-.937a10.306 10.306 0 0 1 10.306-10.306ZM291.7 982.07h65.922a10.306 10.306 0 0 1 10.306 10.305v.937a10.306 10.306 0 0 1-10.306 10.306H291.7a10.306 10.306 0 0 1-10.306-10.306v-.937A10.306 10.306 0 0 1 291.7 982.07Z" class="colorfff svgShape"></path><rect width="86.534" height="21.549" x="302.594" y="1024.876" fill="#ffffff" rx="10.306" class="colorfff svgShape"></rect><rect width="86.534" height="21.549" x="281.394" y="1067.683" fill="#ffffff" rx="10.306" class="colorfff svgShape"></rect><rect width="86.534" height="21.549" x="317.45" y="1110.489" fill="#ffffff" rx="10.306" class="colorfff svgShape"></rect><rect width="86.534" height="21.549" x="281.394" y="1153.296" fill="#ffffff" rx="10.306" class="colorfff svgShape"></rect><path fill="#ffffff" d="M316.94 1196.102h65.921a10.306 10.306 0 0 1 10.306 10.307v.936a10.306 10.306 0 0 1-10.306 10.307h-65.922a10.306 10.306 0 0 1-10.306-10.306v-.937a10.306 10.306 0 0 1 10.306-10.307ZM291.7 1238.909h65.922a10.306 10.306 0 0 1 10.306 10.306v.937a10.306 10.306 0 0 1-10.306 10.306H291.7a10.306 10.306 0 0 1-10.306-10.306v-.937a10.306 10.306 0 0 1 10.306-10.306Z" class="colorfff svgShape"></path><rect width="86.534" height="21.549" x="281.394" y="1281.716" fill="#ffffff" rx="10.306" class="colorfff svgShape"></rect><path fill="none" stroke="#13a497" stroke-miterlimit="10" stroke-width="6.017" d="M754.784 922.058h458.062v433.441H754.784z" class="colorStroke13a497 svgStroke"></path><path fill="none" stroke="#13a497" stroke-miterlimit="10" stroke-width="3.482" d="M1760.8 437.521h372.767v178.395H1760.8z" class="colorStroke13a497 svgStroke"></path><path fill="#e6560f" d="M0 1099.112h446.732v212.769H0z" class="colore6560f svgShape"></path><path fill="#e6560f" d="M46.086 1142.73h446.732v212.769H46.086z" opacity=".31" class="colore6560f svgShape"></path><path fill="#ffffff" d="m124.478 1176.942-49.594 18.168 49.594 18.022v18.615l-70.888-26.954v-19.361l70.888-26.954ZM177.793 1121.84h20.7l-49.145 140.292h-20.7ZM272.066 1185.432v19.361l-70.888 26.954v-18.615l49.593-18.022-49.593-18.168v-18.464ZM290.385 1244.255a14.128 14.128 0 0 1-4.17-10.423 13.591 13.591 0 0 1 4.17-10.35 15.352 15.352 0 0 1 20.549 0 13.59 13.59 0 0 1 4.169 10.35 14.127 14.127 0 0 1-4.17 10.423 14.73 14.73 0 0 1-20.548 0ZM329.404 1244.255a14.128 14.128 0 0 1-4.169-10.423 13.591 13.591 0 0 1 4.17-10.35 15.352 15.352 0 0 1 20.548 0 13.59 13.59 0 0 1 4.17 10.35 14.127 14.127 0 0 1-4.17 10.423 14.73 14.73 0 0 1-20.549 0ZM368.423 1244.255a14.127 14.127 0 0 1-4.169-10.423 13.59 13.59 0 0 1 4.17-10.35 15.352 15.352 0 0 1 20.548 0 13.591 13.591 0 0 1 4.17 10.35 14.128 14.128 0 0 1-4.17 10.423 14.73 14.73 0 0 1-20.549 0Z" class="colorfff svgShape"></path><path fill="#e6560f" d="M2478.881 154.052h261.318v212.769h-261.318z" class="colore6560f svgShape"></path><path fill="#e6560f" d="M2505.839 197.67h261.318v212.769h-261.318z" opacity=".31" class="colore6560f svgShape"></path><path fill="#ffffff" d="M2583.865 256.32a10.221 10.221 0 0 1-5.821 4.114 10.263 10.263 0 0 1 5.82 4.115q1.828 2.86 1.832 8.685v18.281a8.678 8.678 0 0 0 2.111 6.286q2.12 2.17 6.23 2.167h2.055v13.944h-6.62q-10.629 0-16.115-5.259-5.482-5.258-5.486-15.194v-20.685a5.577 5.577 0 0 0-1.311-3.999 4.91 4.91 0 0 0-3.72-1.371h-3.766v-13.94h3.766a4.892 4.892 0 0 0 3.72-1.37 5.562 5.562 0 0 0 1.31-4v-20.68q0-9.945 5.487-15.198 5.482-5.252 16.115-5.254h6.62V220.9h-2.055q-4.114 0-6.23 2.17a8.67 8.67 0 0 0-2.11 6.287v18.281q0 5.824-1.832 8.68ZM2668.883 253.465v13.939h-3.775a4.901 4.901 0 0 0-3.71 1.371 5.539 5.539 0 0 0-1.32 3.999v20.685q0 9.938-5.478 15.194-5.495 5.259-16.114 5.259h-6.63v-13.944h2.064c2.734 0 4.817-.72 6.22-2.167a8.64 8.64 0 0 0 2.12-6.286v-18.281q0-5.83 1.823-8.685a10.255 10.255 0 0 1 5.83-4.115 10.213 10.213 0 0 1-5.83-4.114q-1.827-2.853-1.822-8.68v-18.282q0-4.115-2.12-6.286c-1.404-1.446-3.487-2.171-6.221-2.171h-2.064v-13.94h6.63q10.628 0 16.114 5.254 5.482 5.259 5.477 15.2v20.68a5.524 5.524 0 0 0 1.32 3.998 4.884 4.884 0 0 0 3.71 1.372Z" class="colorfff svgShape"></path><path fill="#490000" d="M1449.322 1071.22s35.365 229.585 21.287 263.157 409.47-10.528 409.47-10.528-33.603-243.965-75.88-299.196-354.877 46.567-354.877 46.567Z" class="color490000 svgShape"></path><path fill="#230000" d="m1783.368 1093.617 74.141 272.165s-75.01 54.148-102.085 9.747-60.858-286.26 27.944-281.912Z" class="color230000 svgShape"></path><path fill="#ff7b57" d="M1636.74 1426.512c-77.721-8.246-96.291-23.388-100.42-65.332-4.117-41.958 33.01-95.603 33.01-95.603l158.195-73.591s5.493 60.527 23.374 66.709c5.098 1.771 11.42 3.3 17.92 4.817 9.687 2.243 19.743 4.423 26.676 7.163 4.729 1.874 8.004 3.99 8.705 6.59 2.41 8.947-89.752 157.506-167.46 149.247Z" class="colorff7b57 svgShape"></path><path fill="#d04719" d="M1753.155 1330.756a447.906 447.906 0 0 1-60.055 43.462c-21.91 13.242-44.75 25.962-70.826 27.785-24.038 1.67-48.407-8.132-61.407-29.021-13.765-22.139-13.434-46.66-7.15-71.17 1.657-6.462 19.908-5.85 19.742 1.542-.497 22.1.42 47.63 15.562 65.23 26.702 31.06 74.573-2.51 99.63-19.08a448.04 448.04 0 0 0 49.057-37.585c7.112-6.283 14.44-12.618 20.57-19.895 6.654-7.915 9.203-15.307 9.815-25.491a8.617 8.617 0 0 1 .726-3.02c9.687 2.242 19.743 4.422 26.676 7.162 1.492 24.777-25.669 45.769-42.34 60.081Z" class="colord04719 svgShape"></path><path fill="#d04719" d="M1737.345 1199.14c-2.579-7.869-10.198-11.6-18.15-11.492-.506.007-1.001.034-1.488.075a17.046 17.046 0 0 0-9.665 1.092 584.884 584.884 0 0 0-140.706 89.923c-3.33 2.888-4.845 7.443-2.684 10.987a6.42 6.42 0 0 0-.807 2.778c-.837 14.263 12.127 25.176 24.993 28.126 17.093 3.918 34.687-3.572 50.125-10.2 28.627-12.293 57.87-29.626 78.88-52.969 10.027-11.139 18.072-24.583 19.818-39.642.701-6.052 1.63-12.742-.316-18.678Z" class="colord04719 svgShape"></path><path fill="#ffb957" d="M2254.339 2233.252c-11.242 15.32-45.54 22.992-88.198 26.217h-.025c-100.968 7.621-248.776-9.712-248.776-9.712s-81.837-31.634-152.688-40.581c-52.333-6.602-264.937-12.452-386.336-27.543-42.94-5.34-74.471-11.828-83.47-19.908-34.462-30.946 2.142-156.117.077-172.622-2.064-16.518 39.893-251.032 50.892-317.065 11-66.021 74.28-307.417 99.72-344.251 25.452-36.834 129.722-64.963 125.171-45.705-4.537 19.259-16.505 66.71 16.505 99.732 33.023 33.01 151.313-42.645 177.44-72.393 26.141-29.76 13.103-43.831 13.103-43.831 3.466-19.258 165.714 48.126 251.694 127.223 85.967 79.098 198.075 370.01 229.02 500.687 30.946 130.678 33.699 288.171-4.13 339.752Z" class="colorffb957 svgShape"></path><path fill="#ca5303" d="M2166.116 2259.469c-100.968 7.621-248.776-9.712-248.776-9.712s-81.837-31.634-152.688-40.581c-52.333-6.602-264.937-12.452-386.336-27.543-12.287-28.498-6.513-56.959 12.669-87.93 30.066-48.547 71.36-126.064 134.017-113.382 62.668 12.682 90.198 44.915 90.198 44.915s-3.263 14.134-6.525 17.384c-3.25 3.263 116.275 48.547 172.418 77.517 56.156 28.983 278.867 128.677 385.023 139.332Z" opacity=".41" class="colorca5303 svgShape"></path><path fill="#fd8b66" d="M1804.188 1099.76a54.594 54.594 0 0 1-.332 5.57c-6.181 55.71-44.01 52.957-44.01 52.957-22.699 79.786-101.796 129.99-132.053 136.86-30.258 6.882-91.473 6.882-134.106-62.58-20.291-33.049-34.515-80.589-43.844-121.336-10.273-44.901-14.62-81.557-14.62-81.557s-9.622-44.01-8.258-62.58c1.376-18.57 20.634-81.85 92.85-77.72 72.214 4.13 193.256 105.225 201.515 106.602 7.966 1.325 83.43 50.216 82.858 103.785Z" class="colorfd8b66 svgShape"></path><path fill="#d04719" d="M1804.188 1099.76c-13.166-38.12-56.64-25.503-92.404-14.848-39.523 11.777-95.118 28.371-133.418 15.32-38.3-13.05-60.88-122.964-88.023-120.925-29.673 2.229-42.31 30.204-34.013 70.976 7.38 36.184-3.875 56.78-6.487 60.948-10.273-44.901-14.62-81.557-14.62-81.557s-9.622-44.01-8.258-62.58c1.376-18.57 20.634-81.85 92.85-77.72 72.214 4.13 193.256 105.225 201.515 106.602 7.966 1.325 83.43 50.216 82.858 103.785Z" class="colord04719 svgShape"></path><path fill="#230000" d="M1723.237 1061.776c-.672 17.299-.353 34.528.364 51.826.17 4.11 6.134 5.125 7.288.987 2.849-10.215 3.923-20.046 4.8-30.562a66.426 66.426 0 0 1 2.305-12.65c1.332-4.683 4.674-8.633 5.637-13.333a6.953 6.953 0 0 0-10.08-7.75c-9.142 4.838-11.556 19.497-12.334 28.789a98.62 98.62 0 0 0 .11 16.053c.491 6.202 2.051 12.22 2.274 18.466h7.42c-1.646-17.253-2.856-34.552-4.222-51.826a1.782 1.782 0 0 0-3.562 0ZM1448.29 908.634s-48.142 41.265-44.016 80.467 29.783 104.539 30.71 123.796 16.058-11.692 19.496-39.202c1.782-14.251-10.196-45.505-10.316-64.65-.111-17.81 16.506-27.51 16.506-27.51Z" class="color230000 svgShape"></path><path fill="#5e1212" d="M1799.293 1074.805c-9.367-17.46-31.889-27.25-61.458-12.12-29.569 15.14-96.978 39.204-137.547 33.71-40.581-5.505-63.968-96.29-93.538-121.742-29.569-25.44-46.074 6.882-46.074 6.882a95.656 95.656 0 0 1-10.974-10.935l-.05-.051v-.013c-56.335-66.722 61.113-145.628 158.194-167.13 102.485-22.699 163.688 83.215 183.634 144.43 15.588 47.847 35.381 59.967 51.16 69.883a94.39 94.39 0 0 1 12.108 8.527c16.518 14.44-46.074 66.02-55.455 48.56Z" class="color5e1212 svgShape"></path><path fill="#490000" d="M1799.293 1074.805c-9.367-17.46-31.889-27.25-61.458-12.12-29.569 15.14-96.978 39.204-137.547 33.71-40.581-5.505-63.968-96.29-93.538-121.742-29.569-25.44-46.074 6.882-46.074 6.882l-10.974-10.935-.05-.051v-.013c-.14-.663-5.035-24.777 28.217-26.14 33.699-1.377 67.895 77.032 99.031 114.86 31.137 37.828 79.642 27.4 121.043 0 77.096-51.024 121.947-1.466 144.697-41.537a94.39 94.39 0 0 1 12.108 8.527c16.518 14.44-46.074 66.02-55.455 48.56Z" class="color490000 svgShape"></path><path fill="#ca5303" d="M1423.531 1553.06s9.629 30.949 10.317 101.787-24.072 377.578-24.072 377.578-72.214 39.89-77.028 24.759 40.577-84.594 59.147-229.71 16.506-308.114 31.636-274.414Z" class="colorca5303 svgShape"></path><path fill="#ca5303" d="M1924.76 1572.374q62.827 158.255 122.9 317.584c15.543 41.222 31.41 82.303 44.485 124.397.533 1.715 1.014 3.745-.074 5.175-.899 1.18-2.528 1.468-4.001 1.633-14.064 1.568-28.046-.77-41.858-3.26-77.082-13.9-153.107-32.806-228.597-53.566-94.223-26.135-175.827-47.322-181.924-39.839a87.241 87.241 0 0 0-8.92 13.224c-8.253 1.375-128.274 4.607-128.274 4.607s113.48-28.198 134.8-34.388c13.92-4.041 35.035 2.711 48.79 4.85 31.145 4.846 62.191 10.323 93.297 15.415 32.17 5.267 64.396 10.35 96.775 14.163 26.205 3.085 52.381 5.964 78.755 3.182 4.728-.498 9.889-1.378 12.976-4.993 2.673-3.13 3.107-7.542 3.331-11.652 1.969-36.126-4.883-71.318-10.644-106.79-12.829-78.949-28.682-157.283-39.569-236.568-.89-6.484.029-15.477 6.525-16.263l1.227 3.09Z" opacity=".46" class="colorca5303 svgShape"></path><path fill="#fd8b66" d="M1626.773 1937.726a.098.098 0 0 1-.013.038c-.102.32-.866 2.677-1.81 6.64a150.122 150.122 0 0 0-3.594 25.415c-1.083 19.194-6.156 55.417-6.156 55.417s-11.585-2.167-32.96 5.799-60.259 11.585-83.748 11.585h-26.728s-25.503 29.773-34.858 44.634a.207.207 0 0 1-.038.077 31.986 31.986 0 0 0-3.008 5.646c-3.76 10.502-31.647 32.233-33.1 32.96-1.452.726-39.485 16.3-48.534 5.798-9.062-10.502-19.831-86.209-19.831-86.209s76.331-85.495 91.906-90.555c15.587-5.073 110.12-19.564 132.22-22.827 22.1-3.263 70.252 5.582 70.252 5.582Z" class="colorfd8b66 svgShape"></path><path fill="#d04719" d="M1423.945 2048.42s-34.774 65.925-48.539 73.17-8.693-10.505-7.607-10.868 54.697-69.547 56.146-62.303ZM1394.968 2030.308s-34.051 65.925-40.571 67.374-4.71-14.489 0-20.647 40.406-56.507 40.57-46.727ZM1624.95 1944.405a150.122 150.122 0 0 0-3.594 25.414c-1.083 19.194-6.156 55.417-6.156 55.417s-11.585-2.167-32.96 5.799-60.259 11.585-83.748 11.585h-26.728s-25.503 29.773-34.858 44.634c1.185-2.218 24.56-49.732 38.108-51.516 13.765-1.81 77.518-6.883 107.584-22.814 23.859-12.657 37.675-52.575 42.352-68.52Z" opacity=".8" class="colord04719 svgShape"></path><path fill="#ca5303" d="M1925.276 1359.952c-11.31 6.349-20.37 18.658-26.805 29.65a132.129 132.129 0 0 0-14.464 38.06c-7.38 33.006-2.984 67.062 1.967 100.068.796 5.305 16.211 4.979 15.721 0-3.099-31.477-6.933-63.827-.992-95.211a128.228 128.228 0 0 1 12.953-37.021 97.573 97.573 0 0 1 11.188-16.677c4.24-5.016 9.42-8.874 13.923-13.566 5.809-6.052-10.246-7.124-13.491-5.303Z" class="colorca5303 svgShape"></path><path fill="#5e1212" d="M1480.257 1137.183c1.216 8.808 5.988 16.973 10.821 24.273 6.01 9.076 20.815.036 14.445-8.443-4.985-6.637-8.628-14.09-13.463-20.806-4.44-6.167-12.803-2.276-11.803 4.976ZM1604.16 1114.911a82.584 82.584 0 0 0 5.672 24.927c4.887 12.383 22.327 5.305 16.976-7.157-3.062-7.132-5.947-14.333-9.017-21.461-2.876-6.678-14.12-3.268-13.63 3.691Z" class="color5e1212 svgShape"></path><path fill="#ffffff" d="M1458.222 1177.462a34.52 34.52 0 0 0-5.577 16.542c-1.751 31.605 42.42 40.734 64.837 30.058 13.24-6.306 23.227-19.89 23.477-34.553.661-38.685-51.067-41.677-73.997-22.051a45.202 45.202 0 0 0-8.74 10.004ZM1576.959 1156.482a34.52 34.52 0 0 0-5.577 16.542c-1.75 31.605 42.421 40.733 64.837 30.058 13.241-6.306 23.227-19.89 23.478-34.553.66-38.685-51.068-41.677-73.998-22.051a45.202 45.202 0 0 0-8.74 10.004Z" opacity=".27" class="colorfff svgShape"></path><path fill="none" stroke="#fff" stroke-miterlimit="10" stroke-width="3.657" d="M1458.222 1177.462a34.52 34.52 0 0 0-5.577 16.542c-1.751 31.605 42.42 40.734 64.837 30.058 13.24-6.306 23.227-19.89 23.477-34.553.661-38.685-51.067-41.677-73.997-22.051a45.202 45.202 0 0 0-8.74 10.004ZM1576.959 1156.482a34.52 34.52 0 0 0-5.577 16.542c-1.75 31.605 42.421 40.733 64.837 30.058 13.241-6.306 23.227-19.89 23.478-34.553.66-38.685-51.068-41.677-73.998-22.051a45.202 45.202 0 0 0-8.74 10.004Z" class="colorStrokefff svgStroke"></path><path fill="#ffffff" d="M1538.282 1175.91c.812-2.418 3.326-4.691 5.328-6.207a19.913 19.913 0 0 1 7.66-3.445 24.705 24.705 0 0 1 17.81 2.958c3.48 2.02 6.657-3.431 3.15-5.387a29.195 29.195 0 0 0-22.885-2.213 22.487 22.487 0 0 0-8.955 5.243 12.734 12.734 0 0 0-2.76 4.076 13.26 13.26 0 0 0-.798 4.778c-.045.865 1.195.955 1.45.196ZM1492.07 1206.506q3.95-7.195 8.129-14.26 2.03-3.426 4.115-6.82c1.449-2.358 3.194-4.703 4.079-7.335.55-1.638-1.64-2.718-2.786-1.621-1.94 1.857-3.263 4.427-4.66 6.708q-2.144 3.5-4.229 7.034-4.17 7.07-8.102 14.275c-1.234 2.26 2.214 4.28 3.454 2.02ZM1609.566 1180.13q3.378-6.054 6.31-12.341c.981-2.112 1.967-4.235 2.802-6.41.83-2.158 1.703-4.21 1.58-6.563a1.181 1.181 0 0 0-1.992-.825 9.728 9.728 0 0 0-2.003 2.87c-.42.99-.853 1.974-1.288 2.957-.904 2.045-1.735 4.121-2.646 6.164q-2.78 6.234-6.011 12.25c-1.142 2.131 2.065 4.02 3.248 1.899Z" class="colorfff svgShape"></path><path fill="#5e1212" d="M1457.897 1123.26c-1.138-4.071 1.962-8.224 4.47-11.132a69.664 69.664 0 0 1 8.48-8.344 67.066 67.066 0 0 1 9.729-6.646c1.762-.99 3.58-1.862 5.396-2.747 1.775-.866 3.817-1.443 5.399-2.622 1.197-.892.931-3.05-.818-3.017a14.806 14.806 0 0 0-5.07 1.373 48.363 48.363 0 0 0-4.723 2.13 64.687 64.687 0 0 0-8.732 5.444 57.583 57.583 0 0 0-14.401 14.952c-2.137 3.377-3.516 7.32-1.934 11.216.538 1.324 2.612.85 2.204-.607Z" class="color5e1212 svgShape"></path><path fill="#d04719" d="M1761.288 1094.853c-9.854 5.488-14.986 16.978-11.539 27.923 2.348 7.457 9.126 12.373 17.053 9.816 6.201-2.001 10.445-7.45 12.645-13.36 1.933-5.192 3.26-12.448 1.918-17.94-1.732-7.086-9.074-12.195-16.348-10.05-5.994 1.768-9.003 8.2-11.385 13.444-3.09 6.8-6.019 13.53-2.535 20.74 2.477 5.126 8.867 4.51 12.565 1.618 3.723-2.911 4.444-7.176 6.041-11.342a43.226 43.226 0 0 1 1.855-4.146q.71-1.393 1.489-2.75 2.224-3.258-1.699.772h-5.104l1.197.387-4.236-2.469q-.612-3.906-.6-1.716a14.837 14.837 0 0 1-.156 1.956 30.292 30.292 0 0 1-.609 3.486c-.145.624-1.123 2.5-1.123 2.961 0 .555-.933-.126.49-.025l4.78 1.293q2.26 3.371 1.123.566-.135-.658-.306-1.308a15.562 15.562 0 0 1-.09-3.79 11.786 11.786 0 0 1 2.123-6.283c4.175-5.284-.946-13.462-7.549-9.783Z" class="colord04719 svgShape"></path><path fill="#ffffff" d="M1656.222 1146.857a100.624 100.624 0 0 0 7.204-5.723q3.432-3.008 6.824-6.062c4.463-4.008 8.929-8.013 13.36-12.058 8.918-8.142 17.923-16.199 26.734-24.457l7.471-7.002c2.499-2.342 5.137-4.69 6.97-7.608.71-1.13-.663-2.298-1.74-1.74a36.522 36.522 0 0 0-7.358 5.63l-6.676 6.034c-4.48 4.048-8.9 8.162-13.326 12.27-8.82 8.183-17.65 16.355-26.403 24.61a196.2 196.2 0 0 0-14.394 14.379 1.111 1.111 0 0 0-.086 1.444 1.09 1.09 0 0 0 1.42.283Z" class="colorfff svgShape"></path><path fill="#ffe3c2" d="M1657.893 1144.079c.467 10.045.567 20.105.889 30.156q.482 15.077 1.048 30.15c.756 20.1 1.706 40.193 2.734 60.28q1.55 30.28 3.439 60.541.942 15.057 1.978 30.107c.655 9.567 1.168 19.167 2.27 28.695 1.913 16.53 6.253 33.333 17.96 45.756a42.597 42.597 0 0 0 18.373 11.764c8.5 2.583 17.6 1.837 26.07-.47 8.417-2.294 16.44-6.035 24.12-10.13a189.829 189.829 0 0 0 20.963-13.058 277.152 277.152 0 0 0 37.473-32.788c11.685-12.034 22.59-24.796 33.289-37.706 10.932-13.191 22.793-26.305 30.685-41.632a81.25 81.25 0 0 0 4.917-11.657c.56-1.692-2.106-2.417-2.663-.735-5.468 16.526-16.825 30.11-27.7 43.362-10.423 12.7-20.91 25.362-32.024 37.467-21.953 23.91-46.792 46.083-76.722 59.419-8.199 3.653-17.044 6.588-26.096 6.757a36.726 36.726 0 0 1-22.253-6.893c-13.29-9.492-19.6-25.401-22.344-40.955-1.6-9.07-2.17-18.283-2.814-27.458q-1.034-14.754-1.987-29.513-1.906-29.52-3.51-59.057c-2.13-39.387-3.713-78.797-5.271-118.21-.187-4.732-.348-9.457-.405-14.192-.018-1.56-2.491-1.554-2.419 0ZM1450.27 1199.61c1.352 13.052 2.869 26.078 3.934 39.16 1.068 13.126 1.768 26.28 2.378 39.436 1.21 26.126 2.138 52.297 4.867 78.32 1.356 12.932 3.158 25.825 5.67 38.585 1.093 5.544 2.026 11.326 4.191 16.576 1.902 4.612 5.038 8.705 9.94 10.305 4.916 1.605 10.467.317 14.752-2.371 4.717-2.96 8.082-7.586 10.8-12.351 3.18-5.577 5.892-11.442 8.772-17.177l9.13-18.176c5.95-11.847 12.113-23.61 17.779-35.596 5.26-11.128 9.918-22.746 11.583-35.018a72.291 72.291 0 0 0 .66-8.829 1.067 1.067 0 0 0-2.134 0c-.158 12.243-3.788 24.074-8.574 35.247-4.966 11.592-10.95 22.758-16.643 34.002l-17.927 35.398c-4.705 9.29-10.124 21.514-21.976 22.695a12.243 12.243 0 0 1-12.09-6.305c-2.656-4.51-3.586-9.893-4.652-14.947-2.632-12.48-4.556-25.1-6-37.77-2.88-25.286-3.87-50.72-5.123-76.124-1.248-25.32-2.416-50.8-6.476-75.857-.508-3.135-1.147-6.242-1.833-9.342-.125-.566-1.09-.455-1.029.139Z" class="colorffe3c2 svgShape"></path><path fill="#d04719" d="M1573.078 1396.628c19.195 18.57 47.055 22.24 72.307 16.8 29.664-6.393 57.732-22.479 83.216-38.416 7.143-4.467 14.298-9.012 20.975-14.16 5.15-3.971 12.591-9.553 13.538-16.45.282-2.053-1.52-3.742-3.526-2.711-3.582 1.84-6.086 5.2-9.061 7.849a108.254 108.254 0 01-9.441 7.534c-6.946 4.918-14.184 9.457-21.46 13.868a419.493 419.493 0 01-48.555 25.703c-29.457 12.929-68.088 19.742-94.518-3.492-2.356-2.07-5.77 1.255-3.475 3.475zM1782.156 1325.81c6.2-6.82 12.426-13.711 17.068-21.72 3.84-6.628 8.575-15.99 6.27-23.805a1.904 1.904 0 00-3.638 0c-1.537 3.933-1.775 8.297-3.034 12.338a58.965 58.965 0 01-4.932 11.18 178.823 178.823 0 01-13.798 20.415c-.9 1.19 1.07 2.687 2.064 1.593z" opacity=".39" class="colord04719 svgShape"></path><path fill="#ca5303" d="M1600.855 2045.628c65.895 32.989 133.197 63.053 200.892 92.145q100.87 43.35 203.64 82.105 28.906 10.975 57.932 21.63c19.591 7.191 39.19 14.899 59.514 19.724 3.67.872 6.399-4.597 2.686-6.371-16.31-7.795-33.445-13.652-50.431-19.812q-25.882-9.387-51.671-19.029-51.576-19.285-102.764-39.585-102.723-40.742-203.992-85.086c-37.793-16.59-75.474-33.442-113.21-50.162-2.964-1.313-5.602 2.936-2.596 4.441Z" class="colorca5303 svgShape"></path><path fill="#ca5303" d="M1605.912 2044.753c5.315-4.155 8.328-11.515 10.15-17.827 2.139-7.403 3.59-15.799 2.113-23.426-.24-1.236-1.825-.922-2.204 0-2.763 6.712-2.97 14.226-4.931 21.198-1.841 6.541-5.139 11.715-8.36 17.562-1.197 2.175 1.466 3.874 3.232 2.493ZM1925.572 1584.532c8.375 38.91 23.955 75.488 40.116 111.706q25.121 56.301 47.908 113.583 22.703 57.338 42.69 115.703 9.905 28.979 19.09 58.198c2.756 8.797 4.819 17.683 7.333 26.53 2.054 7.23 5.34 14.08 13.15 16.14 4.168 1.1 8.643 1.025 12.879 1.815q8.502 1.585 16.832 3.948a184.875 184.875 0 0 1 28.9 10.822c18.703 8.88 34.572 21.382 51.178 33.511 4.202 3.07 7.848-3.217 5.125-6.641-11.08-13.934-26.636-24.322-42.197-32.66a195.8 195.8 0 0 0-51.15-18.856 122.216 122.216 0 0 0-12.93-2.208c-3.437-.36-6.844-.016-8.794-3.291-3.948-6.629-4.454-15.938-6.736-23.268q-9.048-29.06-18.932-57.855c-26.056-76.347-55.419-151.785-89.038-225.132-18.516-40.396-37.967-80.65-50.795-123.321-.894-2.972-5.278-1.738-4.629 1.276ZM1665.836 1929.543c54.748 12.256 109.322 24.865 163.452 39.65 52.319 14.29 104.195 30.597 157.296 41.833 29.55 6.253 59.62 10.322 89.87 9.553.92-.024 1.222-1.547.228-1.684-53.444-7.366-105.831-19.059-157.794-33.471-53.095-14.727-105.898-29.763-159.769-41.49-30.673-6.679-61.484-12.543-92.554-17.036-1.696-.245-2.494 2.25-.73 2.645ZM2177.836 2074.575a151.53 151.53 0 0 1 20.232 25.526c2.688 4.262 5.31 8.55 7.656 13.013 2.454 4.667 4.089 10.153 7.467 14.203 2.075 2.486 6.969.537 6.634-2.748-.524-5.14-3.41-9.848-5.835-14.344a121.818 121.818 0 0 0-9.323-14.95 155.881 155.881 0 0 0-22.87-24.66c-2.697-2.342-6.518 1.361-3.96 3.96Z" class="colorca5303 svgShape"></path><path fill="#230000" d="M1479.86 913.17c13.781-5.834 31.568 4.329 43.013 11.577 12.516 7.926 23.265 18.372 32.812 29.632 10.27 12.112 19.043 25.401 27.972 38.507 4.551 6.68 9.08 13.388 13.873 19.899 4.436 6.026 9.65 13.308 16.216 17.119 2.31 1.34 5.956-.937 4.868-3.743-3.024-7.807-9.237-14.834-14.167-21.56-5.32-7.255-10.426-14.662-15.585-22.031-9.732-13.902-19.827-27.697-31.581-39.977-10.828-11.312-23.196-21.54-37.243-28.599-12.508-6.285-29.34-11.927-42.658-5.068-2.88 1.483-.347 5.44 2.48 4.244ZM1591.346 944.164c11.864 18.564 25.972 35.079 43.257 48.825a210.13 210.13 0 0 0 26.283 17.905c9.185 5.264 19.402 10.31 29.991 11.254 2.003.179 2.214-2.455.923-3.407-8.174-6.03-17.807-10.07-26.724-15.014a198.882 198.882 0 0 1-26.158-17.273c-16.27-12.74-31.304-27.92-43.131-44.886-1.868-2.679-6.246-.228-4.441 2.596Z" class="color230000 svgShape"></path><path fill="#e6560f" d="M539.135 2233.668h2034.921V2300H539.135z" class="colore6560f svgShape"></path><path fill="#3d9ba8" d="M1100.546 2182.452h813.892v51.216h-813.892z" class="color3d9ba8 svgShape"></path><path fill="#78c1d0" d="M1471.562 2233.668H829.133l-375.33-567.831h642.43l375.329 567.831z" class="color78c1d0 svgShape"></path><path fill="#003347" d="M1436.908 2233.665H794.477l-84.41-127.712-290.919-440.116h642.432l375.328 567.828z" class="color003347 svgShape"></path><ellipse cx="892.077" cy="1949.752" fill="#78c1d0" rx="76.316" ry="30.603" class="color78c1d0 svgShape"></ellipse><path fill="#78c1d0" d="M1436.908 2233.665H794.477l-84.41-127.712c84.828-111.446 241.918-318.352 334.357-440.116h17.156Z" opacity=".29" class="color78c1d0 svgShape"></path><path fill="#ffe3c2" d="M2703.538 2132.863c2.912-.2 5.82-.448 8.73-.66 2.776-.2 5.39-.489 8.18-.854-.773.101-3.082.397.518-.064 7.481-.958 14.955-1.98 22.402-3.174q4.386-.702 8.76-1.473 1.748-.308 3.494-.627l1.745-.322q3.609-.686-.243.068c.585-.753 7.642-.149 8.518-.172a64.652 64.652 0 0 0 14.014-2.192c23.658-5.838 47.076-13.15 70.123-21.038 12.944-4.43 25.634-10.148 38.194-15.527 11.453-4.905 22.939-9.908 34.009-15.627q31.674-16.364 62.014-35.156a1058.11 1058.11 0 0 0 201.202-161.46 1106.597 1106.597 0 0 0 156.928-204.67 1090.368 1090.368 0 0 0 58.448-112.041c18.427-40.961 35.105-82.795 48.15-125.794a1047.91 1047.91 0 0 0 29.092-121.336c4.285-24.183 7.71-48.537 10.526-72.932 1.198-10.371 1.061-20.658 1.478-31.068q.638-15.954.76-31.923c.062-7.976.698-17.056-1.728-24.63a76.039 76.039 0 0 0-14.807-25.717l8.893 15.258c-.983-4.243-2.862-8.37-4.387-12.45-4.471-11.955-14.914-22.484-28.72-21.866a35.327 35.327 0 0 0-15.031 4.067c-7.162 3.784-10.844 10.664-13.687 17.799-1.634 4.102-3.663 8.2-4.861 12.45l8.892-15.258c-3.665 3.807-6.4 8.134-9.22 12.516-5.216 8.106-7.16 16.03-8.151 25.65-.6 5.828-1.04 11.675-1.618 17.507-1.18 11.922-2.954 23.784-4.124 35.7l1.56-11.607c-4.784 17.358-5.223 36.126-7.597 53.968l1.604-11.934c-10.238 76.09-29.412 150.472-54.886 222.844q-10.864 30.862-23.584 61.023l4.353-10.316a1096.494 1096.494 0 0 1-105.008 192.463q-17.618 25.743-36.697 50.44 3.05-3.95 6.102-7.899c-42.911 55.443-90.7 107.01-143.557 153.11q-22.332 19.479-45.78 37.62l6.883-5.318a977.788 977.788 0 0 1-108.176 72.807c-20.466 11.828-40.923 23.636-62.103 34.166-10.53 5.236-20.815 10.774-31.598 15.51-2.396 1.054-4.79 2.269-7.261 3.139 7.128-2.51-1.97.791-3.675 1.483q-9.05 3.672-18.21 7.06c-7.428 2.745-15.125 4.888-21.894 9.008-.97.592-1.976 1.142-2.963 1.706q-1.483.847-2.97 1.685 3.019-1.092.89-.36c-3.104.928-6.16 2.045-9.249 3.027-12.896 4.1-25.963 7.7-39.038 11.166a16.404 16.404 0 0 0-11.751 18c1.018 7.577 7.943 14.785 16.112 14.225ZM3332.598 623.352q10.635 18.624 20.008 37.924c.75 1.549 1.5 3.098 2.23 4.656.166.352 2.501 5.545.881 1.792 1.792 4.15 3.346 8.405 5.214 12.52 3.084 6.795 6.342 13.504 9.336 20.342.691 1.579 1.368 3.164 2.055 4.745 2.318 5.34-1.702-4.194.48 1.142 1.29 3.15 2.586 6.295 3.84 9.46 2.517 6.347 5.12 12.66 7.596 19.024q7.758 19.935 14.165 40.36a721.224 721.224 0 0 1 20.356 81.521q1.919 10.126 3.513 20.31c.531 3.395 1.017 6.797 1.512 10.198.892 6.126-.803-6.453-.041-.326.281 2.265.572 4.53.84 6.796q2.414 20.41 3.5 40.948c.754 14.28 1.847 28.55 2.385 42.842q.386 10.284.431 20.578c.022 5.05-.46 10.43.893 15.347 2.012 7.306 7.051 14.41 13.627 18.185 12.19 6.998 25.489.197 32.148-10.81 5.402-8.93 4.946-21.02 5.55-31.295.833-14.198 1.624-28.643.978-42.863-1.347-29.702-5.804-59.639-11.503-88.787a581.491 581.491 0 0 0-21.896-81.067c-10.868-30.974-23.66-61.543-39.652-90.235-15.968-28.648-35.429-55.116-56.247-80.435-4.417-5.37-13.523-5.116-18.559-1.105a14.19 14.19 0 0 0-3.64 18.233ZM14.052 1596.24a54.028 54.028 0 0 1-.34 7.65 43.311 43.311 0 0 0 1.091 14.173c1.317 5.19 2.922 10.329 4.485 15.45 3.055 10.017 6.113 19.975 10.052 29.676 8.843 21.78 18.485 43.213 29.45 64.012 21.071 39.973 47.602 76.657 76.912 110.995 56.358 66.027 127.15 121.02 204.631 160.122 23.646 11.933 47.96 22.623 73.174 30.773a308.749 308.749 0 0 0 33.96 9.16c6.019 1.215 12.058 2.39 18.122 3.351 8.69 1.377 15.718 1.644 24.3-.756a44.11 44.11 0 0 0 13.115-6.26c12.98-8.864 17.766-24.388 10.14-38.677a45.745 45.745 0 0 0-9.72-12.916 68.719 68.719 0 0 0-9.29-7.252c-3.482-2.133-8.645-3.666-12.757-5.226q-10.364-3.93-20.577-8.237l9.225 3.893c-13.485-5.707-27.196-10.815-40.687-16.504l9.612 4.056c-11.328-4.81-22.604-9.73-33.944-14.511l9.757 4.117a646.04 646.04 0 0 1-141.487-82.873l8.125 6.277a691.745 691.745 0 0 1-123.574-122.962l5.97 7.725c-15.682-20.33-30.598-41.464-44.314-63.17-13.709-21.696-25.52-44.396-37.393-67.098-3.371-6.446-6.541-13.007-9.626-19.593-2.4-5.123-4.44-9.582-8.284-13.958-1.161-1.321-2.457-2.553-3.643-3.858-1.474-1.621-4.321-6.17-.393-.062-5.734-8.914-17.274-14.817-27.933-11.368-9.83 3.182-19.008 12.787-18.16 23.852Z" class="colorffe3c2 svgShape"></path><path fill="#13a497" d="M2711.92 1978.716a1451.414 1451.414 0 0 1-2.7-584.705c30.414-150.895 89.855-303.744 208.318-402.034 21.23-17.615 45.129-33.672 72.37-38.028s58.37 5.78 71.592 29.991c7.007 12.83 8.347 27.912 9.03 42.515a624.932 624.932 0 0 1-46.512 266.831Z" class="color13a497 svgShape"></path><path fill="#56cbb8" d="M3008.793 1553.015c11.42-46.175 36.429-87.438 60.224-128.132 21.696-37.104 44.454-77.91 82.375-99.768a93.843 93.843 0 0 1 26.932-10.81 56.841 56.841 0 0 1 12.83-1.874 29.454 29.454 0 0 1 3.884.03c-1.637-.16.74.148.917.19 2.47.599 1.46.496.73.055.51.309.82.951 1.32 2.108.87 2.015 1.953 8.154 2.137 10.49a76.316 76.316 0 0 1-.282 16.463 91.501 91.501 0 0 1-9.292 27.784c-19.94 37.55-59.981 60.484-94.841 83.334-20.604 13.504-41.09 27.136-60.495 42.34a253.991 253.991 0 0 0-26.46 23.559c-4.096 4.25-8.069 8.631-11.836 13.178-4.513 5.447-6.387 11.77-9.688 17.835-5.46 10.035 7.58 20.554 15.954 12.31 3.956-3.896 8.824-6.085 12.753-9.99 4.186-4.16 8.135-8.522 12.439-12.575 8.198-7.722 16.8-15.112 25.577-22.168 15.997-12.862 35.866-26.116 54.215-38.312 38.992-25.918 84.076-52.541 106.466-95.434 11.619-22.257 17.152-48.708 10.507-73.37-4.015-14.901-14.55-24.27-30.121-25.07-11.462-.59-23.827 2.284-34.556 6.162-47.644 17.223-77.424 58.616-101.258 101.132-27.673 49.36-55.26 100.083-65.31 156.43-1.714 9.614 12.458 13.89 14.879 4.103ZM3125.793 1241.737c4.3-44.064 25.536-85.56 58.13-115.418a157.681 157.681 0 0 1 12.275-10.266 43.145 43.145 0 0 1 5.77-3.911c1.296-.67 3.629-1.883 4.32-1.235 1.63 1.53-3.516-1.234-3.13-1.378-.86.32-.098-1.642-.325 1.45-.18 2.456.247 5.086.276 7.566a149.889 149.889 0 0 1-19.25 75.38 149.972 149.972 0 0 1-19.94 28.358c-4.22 4.693-8.833 8.983-13.24 13.49a81.565 81.565 0 0 0-11.7 15.47c-3.635 5.961 2.343 12.441 8.567 11.143 6.447-1.344 11.854-3.23 17.153-7.217a107.004 107.004 0 0 0 15.544-14.424 179.02 179.02 0 0 0 22.558-31.36 175.17 175.17 0 0 0 22.216-74.208 154.794 154.794 0 0 0 .235-16.632c-.31-7.731-.195-16.86-5.584-22.986-10.477-11.912-26.286-4.155-36.144 4.069a196.088 196.088 0 0 0-47.744 59.684 203.387 203.387 0 0 0-22.845 82.425c-.469 8.356 12.067 8.104 12.858 0ZM2955.036 1669.839c70.123-61.697 151.79-119.319 245.045-124.555 20.821-1.169 42.13.425 61.572 7.969s36.926 21.53 45.73 40.436c10.131 21.751 7.842 47.51.126 70.231a160.025 160.025 0 0 1-36.285 59.485c-29.567 30.609-69.892 48.045-109.4 63.865-110.17 44.114-223.084 81.754-330.342 132.881-27.135 12.935-53.876 26.716-79.973 41.642-7.403 4.235-26.06 20.444-34.68 16.257-12.751-6.193 1.909-23.888 6.121-31.389 27.769-49.446 60.658-95.916 96.987-139.425 41.213-49.36 86.843-94.94 135.099-137.397Z" class="color56cbb8 svgShape"></path><path fill="#ffffff" d="M2723.877 1965.404c60.68-61.09 124.26-119.362 192.72-171.67a1605.888 1605.888 0 0 1 216.703-139.35q32.17-17.222 65.071-33.044 16.067-7.712 32.308-15.055c11.294-5.107 22.939-9.667 33.509-16.172 5.643-3.473 2.002-12.403-4.52-10.724-10.716 2.76-20.794 7.446-30.869 11.973q-14.706 6.609-29.273 13.521-29.513 14.004-58.416 29.257-57.36 30.404-112.085 65.463a1538.951 1538.951 0 0 0-206.213 158.396 1228.91 1228.91 0 0 0-102.167 104.172c-1.906 2.202 1.133 5.346 3.232 3.233Z" class="colorfff svgShape"></path><path fill="#ffffff" d="M2726.124 1918.445c-.927-68.921 7.014-137.838 19.84-205.495 12.937-68.236 31.302-135.335 52.23-201.52 20.56-65.02 43.373-129.36 66.624-193.458 21.884-60.328 44.958-120.311 72.35-178.384 27.32-57.92 58.962-114.004 97.359-165.352 4.685-6.264 8.715-13.015 12.92-19.605 3.417-5.353-4.339-11.228-8.736-6.74-22.513 22.976-40.073 50.942-56.876 78.247-16.79 27.284-32.097 55.464-46.252 84.199-28.759 58.382-52.816 118.968-75.218 180.03-23.462 63.953-45.976 128.314-66.533 193.261-21.065 66.551-39.848 133.92-53.503 202.41-13.557 68-21.306 136.602-21.855 205.966q-.105 13.222.183 26.441c.1 4.797 7.532 4.817 7.467 0Z" opacity=".52" class="colorfff svgShape"></path><path fill="#ffffff" d="M2746.187 1753.91c29.684-47.42 65.492-90.96 108.625-126.774 6.208-5.155 12.569-10.119 19.01-14.978 5.892-4.444 13.061-8.833 17.354-14.926 2.063-2.929-1.333-6.439-4.388-5.709-6.552 1.566-12.687 6.405-18.037 10.328-5.73 4.201-11.324 8.583-16.822 13.083q-16.648 13.626-31.968 28.773a439.758 439.758 0 00-54.05 65.23 343.598 343.598 0 00-24.33 42.281c-1.502 3.062 2.767 5.63 4.606 2.692zM2796.715 1548.761a884.907 884.907 0 01155.859-138.164q12.2-8.509 24.687-16.597c3.925-2.542 7.77-5.185 11.639-7.812 3.886-2.64 8.336-4.777 10.715-8.976a3.151 3.151 0 00-2.697-4.7c-4.09.157-7.081 2.136-10.56 4.127-3.792 2.171-7.615 4.312-11.307 6.651-7.388 4.682-14.637 9.605-21.84 14.567q-21.786 15.011-42.578 31.384a876.602 876.602 0 00-78.907 70.438q-20.972 21.119-40.506 43.587c-3.261 3.752 2.16 9.254 5.495 5.495zM2843.95 1366.06a790.873 790.873 0 01165.068-121.203c8.332-4.579 16.811-8.863 25.213-13.309 8.587-4.543 17.71-8.492 25.72-14.015 3.52-2.425 1.454-8.268-2.994-7.102-8.182 2.145-15.816 6.058-23.442 9.641-7.827 3.678-15.461 7.713-23.05 11.86q-23.122 12.639-45.32 26.877a698.32 698.32 0 00-83.121 62.345q-22.092 19.339-42.6 40.381c-2.885 2.953 1.546 7.375 4.526 4.526zM2918.398 1170.647a531.9 531.9 0 0171.373-64.214q18.95-14.156 39.126-26.564c6.843-4.207 13.76-8.298 20.772-12.217 6.832-3.818 13.812-7.366 19.947-12.26 3.334-2.66-.299-7.916-4.003-6.878-14.894 4.174-28.985 14.22-41.88 22.522q-20.42 13.151-39.56 28.14a516.864 516.864 0 00-70.516 66.73c-2.826 3.22 1.782 7.928 4.74 4.741zM2852.189 1097.94a245.335 245.335 0 0123.54 59.241 297.74 297.74 0 016.206 30.413c1.466 10.282 1.027 21.514 3.834 31.513.896 3.192 6.024 3.483 6.76 0 2.111-10-.038-21.284-1.634-31.244a225.594 225.594 0 00-7.556-32.78 270.203 270.203 0 00-27.203-59.451 2.288 2.288 0 00-3.947 2.307zM2756.982 1236.886c-.214 4.017 1.712 7.957 2.95 11.75 1.362 4.175 2.894 8.29 4.38 12.422q4.468 12.423 8.769 24.905c5.596 16.338 10.946 32.79 15.714 49.389a512.325 512.325 0 0111.9 50.16q2.359 13.039 3.821 26.21c.9 8.191 1.45 16.494 4.72 24.12 1.223 2.849 5.33 1.658 6.128-.801 2.625-8.085 1.655-16.864.675-25.178q-1.514-12.847-3.874-25.58a508.232 508.232 0 00-12.611-51.897c-4.991-16.9-10.751-33.528-16.91-50.036q-4.624-12.396-9.453-24.714c-1.516-3.886-3.013-7.777-4.667-11.608-1.678-3.886-2.94-8.422-5.95-11.458a3.315 3.315 0 00-5.592 2.316zM2699.806 1491.125a246.24 246.24 0 0142.053 115.216c.63 6.484 1.019 13.008 1.404 19.511.406 6.859-.033 13.818 1.137 20.588.655 3.79 6.475 3.47 7.347 0 1.734-6.902 1.298-14.36 1.134-21.438a171.61 171.61 0 00-1.824-19.906 253.606 253.606 0 00-9.4-41.413 259.653 259.653 0 00-37.772-74.942c-1.762-2.41-5.814-.161-4.08 2.384z" opacity=".52" class="colorfff svgShape"></path><path fill="#ffffff" d="M2948.767 1764.03c26.853-26.492 51.641-54.97 75.74-83.983q17.933-21.59 35.362-43.592 8.861-11.186 17.59-22.476c2.601-3.363 5.222-6.711 7.726-10.147 2.76-3.787 6.241-7.57 7.467-12.156a4.084 4.084 0 0 0-5.933-4.561c-4.075 2.43-6.762 6.763-9.69 10.424-2.655 3.32-5.217 6.712-7.81 10.082q-8.875 11.537-17.9 22.957-17.102 21.66-34.694 42.926c-23.893 28.882-48.465 57.191-72.169 86.217-2.433 2.98 1.458 7.124 4.31 4.31ZM3110.31 1646.306c17.788-15.574 35.533-31.17 53.045-47.053l25.876-23.468c4.189-3.8 8.393-7.583 12.565-11.402 4.18-3.825 9.828-8.047 12.129-13.314 1.292-2.959-.891-7.337-4.647-6.044-5.024 1.73-9.19 6.005-13.04 9.572-4.388 4.067-8.725 8.192-13.078 12.297l-26.12 24.634c-17.414 16.423-34.563 33.096-51.686 49.822-3.26 3.183 1.591 7.904 4.957 4.956ZM2903.514 1814.86c32.185-9.453 65.212-15.818 98.41-20.532a715.332 715.332 0 0 1 100.418-7.058c9.17 0 18.325.304 27.49.538 9.577.244 19.228.946 28.646-1.057 4.714-1.002 3.803-7.247 0-8.67-7.903-2.956-16.478-3.407-24.856-3.898-8.517-.499-17.062-.551-25.591-.532q-25.605.06-51.156 2.042c-33.486 2.597-67.219 7.68-99.753 16.085-18.645 4.817-37.18 10.303-55.472 16.322-4.255 1.4-2.498 8.041 1.864 6.76ZM3078.524 1700.304c31.737-1.241 63.717 2.96 95.231 6.266l47.208 4.95q11.797 1.238 23.604 2.367c7.693.747 17.387 3.323 24.84.666 3.666-1.306 4.73-6.36 1.11-8.495-6.565-3.87-15.592-3.32-23-4.005-8.194-.758-16.387-1.522-24.587-2.217l-48.191-4.085c-32.194-2.729-63.971-4.87-96.215-1.39-3.713.4-3.898 6.095 0 5.943ZM3211.214 1622.381a185.415 185.415 0 0 1 43.549 2.684 170.547 170.547 0 0 1 21.049 5.058c6.196 1.911 13.64 6.421 20.15 4.904 3.165-.737 5-4.96 3.141-7.723-4.046-6.014-13.34-7.424-20.002-9.114a181.62 181.62 0 0 0-22.841-4.187c-15.288-1.852-30.795-.84-45.958 1.643-3.8.622-2.93 6.977.912 6.735ZM2665.979 651.296l-.216-.847-2.763 21.123a29.372 29.372 0 0 0 5.322-17.022l-1.093-8.13a34.217 34.217 0 0 0-14.056-18.28l-7.306-3.082a23.167 23.167 0 0 0-12.196-.547 22.762 22.762 0 0 0-11.371 3.63l-6.19 4.782a34.027 34.027 0 0 0-8.958 21.627l1.092 8.13a34.218 34.218 0 0 0 14.056 18.279 36.042 36.042 0 0 0 17.03 4.19l-19.384-8.029.533.663 5.51 4.256a20.26 20.26 0 0 0 10.12 3.23 13.707 13.707 0 0 0 7.238 0 20.26 20.26 0 0 0 10.121-3.23 32.523 32.523 0 0 0 9.766-9.766c3.8-5.894 4.43-14.349 2.745-20.977ZM3060.367 811.628c11.451 0 11.47-17.797 0-17.797-11.452 0-11.47 17.797 0 17.797ZM2987.774 597.344a35.15 35.15 0 0 0 24.091-9.98 37.904 37.904 0 0 0 9.98-24.09c-.395-8.812-3.29-17.951-9.98-24.092-6.666-6.12-14.86-9.98-24.091-9.98a35.15 35.15 0 0 0-24.091 9.98 37.904 37.904 0 0 0-9.98 24.091c.395 8.812 3.29 17.95 9.98 24.092 6.666 6.119 14.86 9.979 24.091 9.979ZM3194.206 994.172c9.712 0 19.015-8.54 18.566-18.567-.45-10.06-8.157-18.566-18.566-18.566-9.712 0-19.015 8.54-18.566 18.566.45 10.06 8.157 18.567 18.566 18.567ZM1050.606 1602.012a28.302 28.302 0 0 0 27.538-27.537l-.984-7.32a27.512 27.512 0 0 0-7.082-12.152l-5.573-4.306a27.41 27.41 0 0 0-13.899-3.76 28.302 28.302 0 0 0-27.537 27.538l.983 7.32a27.512 27.512 0 0 0 7.082 12.152l5.574 4.306a27.41 27.41 0 0 0 13.898 3.76ZM362.176 1544.423c0-2.285.06-4.58 0-6.864a15.493 15.493 0 0 0-1.876-7.667c-1.244-2.127-2.996-3.35-4.938-4.736a10.07 10.07 0 0 0-10.488 0c-1.943 1.387-3.694 2.61-4.938 4.736a15.493 15.493 0 0 0-1.877 7.667c-.06 2.285 0 4.579 0 6.864 0 6.307 5.547 12.35 12.059 12.058 6.533-.292 12.058-5.298 12.058-12.058Z" class="colorfff svgShape"></path></svg></g></svg>
